# xmcd
#
# Track frame offsets: 
#        150
#        13455
#        25100
#        37130
#        48407
#        61102
#        73035
#        86942
#        98907
#        112802
#        125080
#        136807
#        148842
#        161007
#        173732
#        185202
#        196995
#        209057
#        221320
#        235810
#        248440
#        261605
#        274292
#        287080
#        299482
#        311597
#        324350
#        337177
#
# Disc length: 4657 seconds
#
# Revision: 8
# Processed by: cddbd v1.5.2PL0 Copyright (c) Steve Scherf et al.
# Submitted via: ExactAudioCopyFreeDBPlugin 1.0
#
DISCID=c3122f1c
DTITLE=Various Artist - A Shot in the Dark-  Nashville Jumps - Blues 
DTITLE=and Rhythm on Nashville Independent Labels, 1945-1955
DYEAR=2000
DGENRE=Rhythm and Blues
TTITLE0=Cecil Gant - Nashville Jumps
TTITLE1=Cecil Gant - Loose as a Goose
TTITLE2=Wynonie Harris - Lighting Struck the Poor House
TTITLE3=Wynonie Harris - Dig This Boogie
TTITLE4=Wynonie Harris - My Baby's Barrel House
TTITLE5=Wynonie Harris - Drinkin' By Myself
TTITLE6=Cecil Gant - Train Time Blues
TTITLE7=Cecil Gant - Sloppy Joe's
TTITLE8=Cecil Gant - Boogie Woogie Baby
TTITLE9=Cecil Gant - I'm All Alone Now
TTITLE10=Cecil Gant - Anna Mae
TTITLE11=Cecil Gant - Ninth Street Jive
TTITLE12=Rudy Green - Evil Man Blues (as "The Rudy Green Trio")
TTITLE13=Rudy Green - No Good Woman Blues
TTITLE14=Red Calhoun - Here Comes the Man with the Gin
TTITLE15=Cecil Gant - Boozie Boogie
TTITLE16=Rudy Green - Florida Blues (as "The Rudy Green Orchestra")
TTITLE17=Rudy Green - Buzzard Pie (as "The Rudy Green Orchestra")
TTITLE18=St. Louis Jimmy - Goin' Down Slow
TTITLE19=St. Louis Jimmy - I Ain't Done Nothing Wrong
TTITLE20=Cecil Gant - I Believe I'll Go Back Home
TTITLE21=Cecil Gant - I Wonder
TTITLE22=The Big Three Trio - Get Up Those Stairs Madamoiselle (ft Wil
TTITLE22=lie Dixon)
TTITLE23=The Big Three Trio - Signifying Monkey (ft Willie Dixon)
TTITLE24=The Big Three Trio - You Sure Look Good to Me (ft Willie Dixo
TTITLE24=n)
TTITLE25=Sherman Williams - Sherman's Boogie
TTITLE26=Sherman Williams - Keep Your Man at Home
TTITLE27=Sherman Williams - I'm Lucky with My Brown Gal
EXTD=
EXTT0=
EXTT1=
EXTT2=
EXTT3=
EXTT4=
EXTT5=
EXTT6=
EXTT7=
EXTT8=
EXTT9=
EXTT10=
EXTT11=
EXTT12=
EXTT13=
EXTT14=
EXTT15=
EXTT16=
EXTT17=
EXTT18=
EXTT19=
EXTT20=
EXTT21=
EXTT22=
EXTT23=
EXTT24=
EXTT25=
EXTT26=
EXTT27=
PLAYORDER=
